<svg xmlns="http://www.w3.org/2000/svg" viewBox="0 0 24 24" fill="#f1c40f"><path d="M12.006 4.295c-2.67 0-5.338.784-7.645 2.353H0l1.964 2.135a5.997 5.997 0 0 0 4.04 10.43 5.976 5.976 0 0 0 4.075-1.6L12 19.705l1.92-2.09a5.972 5.972 0 0 0 4.072 1.598 6 6 0 0 0 6.004-5.998 5.99 5.99 0 0 0-1.953-4.43l1.957-2.137h-4.35a13.573 13.573 0 0 0-7.644-2.353zM12 6.255c1.53 0 3.062.303 4.504.903C13.942 8.138 12 10.43 12 13.107c0-2.678-1.943-4.969-4.504-5.949A11.756 11.756 0 0 1 12 6.255zM6.002 9.157a3.997 3.997 0 0 1 4.026 3.94v.057a4 4 0 1 1-4.026-3.997zm11.996 0a4 4 0 1 1 .002 7.998 4 4 0 0 1-.002-7.998zm-11.99 1.92a2.077 2.077 0 1 0-.001 4.154 2.077 2.077 0 0 0 0-4.153zm11.984 0a2.077 2.077 0 1 0 0 4.155 2.077 2.077 0 0 0 0-4.155z" /></svg>
